<svg width="24" height="24" viewBox="0 0 24 24" fill="none" xmlns="http://www.w3.org/2000/svg">
<g clip-path="url(#clip0_4821_2365)">
<g clip-path="url(#clip1_4821_2365)">
<path d="M16.7357 4.45616C15.9233 3.52361 14.8233 3 13.6766 3C12.5299 3 11.4299 3.52361 10.6175 4.45616L10 5.16768L9.38247 4.45616C8.57012 3.52361 7.47012 3 6.32339 3C5.17666 3 4.07666 3.52361 3.26431 4.45616C2.45459 5.39327 2 6.66177 2 7.98411C2 9.30645 2.45459 10.5749 3.26431 11.5121L9.59403 18.8051C9.64718 18.8669 9.71042 18.9159 9.7801 18.9493C9.84978 18.9828 9.92452 19 10 19C10.0755 19 10.1502 18.9828 10.2199 18.9493C10.2896 18.9159 10.3528 18.8669 10.406 18.8051L16.7357 11.5121C17.5454 10.5749 18 9.30645 18 7.98411C18 6.66177 17.5454 5.39327 16.7357 4.45616ZM15.9295 10.5765L10 17.4084L4.07054 10.5765C3.47451 9.88855 3.13976 8.95619 3.13976 7.98411C3.13976 7.01203 3.47451 6.07967 4.07054 5.39168C4.66862 4.70454 5.47878 4.31867 6.32339 4.31867C7.168 4.31867 7.97816 4.70454 8.57624 5.39168L9.59403 6.56437C9.64718 6.62612 9.71042 6.67513 9.7801 6.70857C9.84978 6.74202 9.92452 6.75924 10 6.75924C10.0755 6.75924 10.1502 6.74202 10.2199 6.70857C10.2896 6.67513 10.3528 6.62612 10.406 6.56437L11.4238 5.39168C12.0218 4.70454 12.832 4.31867 13.6766 4.31867C14.5212 4.31867 15.3314 4.70454 15.9295 5.39168C16.5255 6.07967 16.8602 7.01203 16.8602 7.98411C16.8602 8.95619 16.5255 9.88855 15.9295 10.5765Z" fill="black"/>
</g>
</g>
<defs>
<clipPath id="clip0_4821_2365">
<rect width="24" height="24" fill="white"/>
</clipPath>
<clipPath id="clip1_4821_2365">
<rect width="24" height="24" fill="white"/>
</clipPath>
</defs>
</svg>
