<svg width="7" height="12" viewBox="0 0 7 12" fill="none" xmlns="http://www.w3.org/2000/svg">
<path d="M0.702341 12C0.608696 12 0.522854 11.9857 0.444816 11.957C0.366778 11.9284 0.28874 11.8783 0.210702 11.8066C0.0702341 11.6777 0 11.5273 0 11.3555C0 11.1836 0.0702341 11.026 0.210702 10.8828L4.98662 6.5L0.210702 2.11719C0.0702341 1.98828 0 1.83431 0 1.65527C0 1.47624 0.0702341 1.32227 0.210702 1.19336C0.351171 1.06445 0.518952 1 0.714047 1C0.909142 1 1.07692 1.06445 1.21739 1.19336L7 6.5L1.21739 11.8066C1.13935 11.8783 1.06132 11.9284 0.983278 11.957C0.90524 11.9857 0.811594 12 0.702341 12Z" fill="black"/>
</svg>
