<svg width="7" height="12" viewBox="0 0 7 12" fill="none" xmlns="http://www.w3.org/2000/svg">
<path d="M6.27425 1C6.3835 1 6.47715 1.0179 6.55518 1.05371C6.63322 1.08952 6.71126 1.13607 6.7893 1.19336C6.92977 1.32227 7 1.47624 7 1.65527C7 1.83431 6.92977 1.98828 6.7893 2.11719L1.98997 6.5L6.7893 10.8828C6.92977 11.026 7 11.1836 7 11.3555C7 11.5273 6.92977 11.6777 6.7893 11.8066C6.63322 11.9355 6.46154 12 6.27425 12C6.08696 12 5.92308 11.9355 5.78261 11.8066L0 6.5L5.78261 1.19336C5.84504 1.13607 5.91527 1.08952 5.99331 1.05371C6.07135 1.0179 6.16499 1 6.27425 1Z" fill="black"/>
</svg>
