<svg width="81" height="20" viewBox="0 0 81 20" fill="none" xmlns="http://www.w3.org/2000/svg">
<path d="M21.5071 7H29.6077V8.549H26.4226V17.2567H24.6711V8.549H21.5V7H21.5071ZM29.2617 9.83018H30.7589V11.2634H30.7872C30.8366 11.0607 30.9284 10.8653 31.0626 10.6771C31.1968 10.4889 31.3592 10.3079 31.5499 10.1559C31.7406 9.99666 31.9525 9.87361 32.1855 9.77227C32.4186 9.67817 32.6587 9.62751 32.8989 9.62751C33.0825 9.62751 33.2167 9.63474 33.2873 9.64198C33.3579 9.64922 33.4285 9.6637 33.5062 9.67094V11.2489C33.3932 11.2272 33.2802 11.2127 33.1602 11.1982C33.0401 11.1837 32.9271 11.1765 32.8141 11.1765C32.5457 11.1765 32.2915 11.2344 32.0514 11.343C31.8112 11.4516 31.6064 11.618 31.4299 11.828C31.2533 12.0451 31.112 12.3057 31.0061 12.6242C30.9002 12.9427 30.8507 13.3046 30.8507 13.7172V17.2494H29.2546V9.83018L29.2617 9.83018ZM40.8441 17.2567H39.2763V16.2216H39.248C39.0503 16.598 38.7607 16.8948 38.3723 17.1192C37.9838 17.3435 37.5883 17.4594 37.1858 17.4594C36.2323 17.4594 35.5402 17.2205 35.1165 16.7355C34.6927 16.2506 34.4808 15.5195 34.4808 14.5423V9.83018H36.077V14.3831C36.077 15.0345 36.197 15.4978 36.4442 15.7656C36.6843 16.0334 37.0304 16.1709 37.4683 16.1709C37.8073 16.1709 38.0827 16.1203 38.3087 16.0117C38.5347 15.9031 38.7183 15.7656 38.8525 15.5846C38.9938 15.4109 39.0926 15.1938 39.1562 14.9477C39.2198 14.7016 39.248 14.4337 39.248 14.1442V9.83742H40.8441V17.2567ZM43.5632 14.8753C43.6126 15.353 43.7892 15.686 44.0929 15.8814C44.4036 16.0696 44.7709 16.1709 45.2017 16.1709C45.35 16.1709 45.5195 16.1565 45.7102 16.1347C45.9009 16.113 46.0845 16.0624 46.2469 15.9972C46.4164 15.9321 46.5506 15.8307 46.6636 15.7004C46.7696 15.5702 46.819 15.4037 46.8119 15.1938C46.8049 14.9839 46.7272 14.8101 46.5859 14.6798C46.4447 14.5423 46.2681 14.441 46.0492 14.3541C45.8303 14.2745 45.5831 14.2021 45.3006 14.1442C45.0181 14.0863 44.7356 14.0212 44.446 13.956C44.1494 13.8909 43.8598 13.804 43.5844 13.7099C43.309 13.6158 43.0618 13.4855 42.8428 13.319C42.6239 13.1598 42.4473 12.9499 42.3202 12.6965C42.186 12.4432 42.1225 12.132 42.1225 11.7556C42.1225 11.3502 42.2213 11.0173 42.412 10.7422C42.6027 10.4671 42.8499 10.25 43.1395 10.0835C43.4361 9.91704 43.761 9.80123 44.1211 9.72884C44.4813 9.6637 44.8274 9.62751 45.1523 9.62751C45.5266 9.62751 45.8868 9.67094 46.2258 9.75056C46.5648 9.83018 46.8755 9.96047 47.1509 10.1487C47.4264 10.3296 47.6524 10.5685 47.836 10.858C48.0196 11.1476 48.1326 11.5022 48.1821 11.9148H46.5153C46.4376 11.5239 46.2681 11.2561 45.9927 11.1258C45.7173 10.9883 45.3994 10.9232 45.0463 10.9232C44.9333 10.9232 44.7991 10.9304 44.6438 10.9521C44.4884 10.9738 44.3471 11.01 44.2059 11.0607C44.0717 11.1114 43.9587 11.191 43.8598 11.2923C43.768 11.3937 43.7186 11.5239 43.7186 11.6904C43.7186 11.8931 43.7892 12.0523 43.9234 12.1754C44.0576 12.2984 44.2341 12.3998 44.4531 12.4866C44.672 12.5663 44.9192 12.6386 45.2017 12.6965C45.4842 12.7545 45.7738 12.8196 46.0704 12.8847C46.3599 12.9499 46.6424 13.0367 46.9249 13.1308C47.2074 13.2249 47.4546 13.3552 47.6736 13.5217C47.8925 13.6882 48.0691 13.8909 48.2033 14.137C48.3374 14.3831 48.4081 14.6943 48.4081 15.0562C48.4081 15.4978 48.3092 15.8669 48.1114 16.1782C47.9137 16.4822 47.6594 16.7355 47.3487 16.9237C47.0379 17.1119 46.6848 17.2567 46.3034 17.3435C45.9221 17.4304 45.5407 17.4738 45.1664 17.4738C44.7073 17.4738 44.2836 17.4232 43.8951 17.3146C43.5067 17.206 43.1677 17.0468 42.8852 16.8369C42.6027 16.6197 42.3767 16.3519 42.2143 16.0334C42.0518 15.7149 41.9671 15.3313 41.953 14.8898H43.5632V14.8753ZM48.8318 9.83018H50.0395V7.60078H51.6356V9.83018H53.0764V11.0535H51.6356V15.02C51.6356 15.1938 51.6427 15.3385 51.6568 15.4688C51.6709 15.5919 51.7062 15.7004 51.7557 15.7873C51.8051 15.8742 51.8828 15.9393 51.9887 15.9827C52.0947 16.0262 52.2289 16.0479 52.4125 16.0479C52.5255 16.0479 52.6385 16.0479 52.7515 16.0406C52.8645 16.0334 52.9775 16.0189 53.0905 15.99V17.2567C52.9139 17.2784 52.7374 17.2929 52.5749 17.3146C52.4054 17.3363 52.2359 17.3435 52.0594 17.3435C51.6356 17.3435 51.2966 17.3001 51.0424 17.2205C50.7881 17.1409 50.5833 17.0178 50.4421 16.8586C50.2938 16.6993 50.2019 16.5039 50.1454 16.265C50.096 16.0262 50.0607 15.7511 50.0536 15.4471V11.0679H48.8459V9.83018H48.8318ZM54.2064 9.83018H55.7177V10.8363H55.746C55.972 10.402 56.2827 10.098 56.6853 9.9098C57.0879 9.7216 57.5187 9.62751 57.9919 9.62751C58.5639 9.62751 59.0583 9.72884 59.482 9.93875C59.9058 10.1414 60.2589 10.4237 60.5414 10.7856C60.8239 11.1476 61.0287 11.5674 61.17 12.0451C61.3112 12.5228 61.3818 13.0367 61.3818 13.5796C61.3818 14.0791 61.3183 14.564 61.1912 15.0273C61.064 15.4978 60.8733 15.9104 60.6191 16.2723C60.3648 16.6342 60.04 16.9165 59.6445 17.1336C59.249 17.3508 58.7899 17.4594 58.2532 17.4594C58.0201 17.4594 57.787 17.4376 57.554 17.3942C57.3209 17.3508 57.0949 17.2784 56.883 17.1843C56.6712 17.0902 56.4664 16.9671 56.2898 16.8151C56.1062 16.6631 55.9579 16.4894 55.8307 16.294H55.8025V20H54.2064V9.83018ZM59.7857 13.5507C59.7857 13.2177 59.7434 12.892 59.6586 12.5735C59.5739 12.255 59.4467 11.98 59.2772 11.7339C59.1077 11.4878 58.8959 11.2923 58.6487 11.1476C58.3944 11.0028 58.1049 10.9232 57.78 10.9232C57.109 10.9232 56.6006 11.162 56.2616 11.6398C55.9226 12.1175 55.753 12.7545 55.753 13.5507C55.753 13.9271 55.7954 14.2745 55.8872 14.593C55.979 14.9115 56.1062 15.1865 56.2898 15.4182C56.4664 15.6498 56.6782 15.8307 56.9254 15.961C57.1726 16.0986 57.4622 16.1637 57.787 16.1637C58.1543 16.1637 58.458 16.0841 58.7122 15.9321C58.9665 15.7801 59.1713 15.5774 59.3337 15.3385C59.4962 15.0924 59.6162 14.8174 59.6869 14.5061C59.7504 14.1949 59.7857 13.8764 59.7857 13.5507ZM62.6037 7H64.1998V8.549H62.6037V7ZM62.6037 9.83018H64.1998V17.2567H62.6037V9.83018ZM65.6264 7H67.2225V17.2567H65.6264V7ZM72.1168 17.4594C71.5377 17.4594 71.0221 17.358 70.5701 17.1626C70.1181 16.9671 69.7368 16.6921 69.419 16.3519C69.1082 16.0045 68.8681 15.5919 68.7056 15.1141C68.5432 14.6364 68.4585 14.108 68.4585 13.5362C68.4585 12.9716 68.5432 12.4504 68.7056 11.9727C68.8681 11.495 69.1082 11.0824 69.419 10.735C69.7297 10.3875 70.1181 10.1197 70.5701 9.92428C71.0221 9.72884 71.5377 9.62751 72.1168 9.62751C72.6959 9.62751 73.2115 9.72884 73.6635 9.92428C74.1155 10.1197 74.4969 10.3948 74.8147 10.735C75.1254 11.0824 75.3656 11.495 75.528 11.9727C75.6904 12.4504 75.7752 12.9716 75.7752 13.5362C75.7752 14.108 75.6904 14.6364 75.528 15.1141C75.3656 15.5919 75.1254 16.0045 74.8147 16.3519C74.5039 16.6993 74.1155 16.9671 73.6635 17.1626C73.2115 17.358 72.6959 17.4594 72.1168 17.4594ZM72.1168 16.1637C72.4699 16.1637 72.7807 16.0841 73.042 15.9321C73.3033 15.7801 73.5152 15.5774 73.6847 15.3313C73.8542 15.0852 73.9743 14.8029 74.059 14.4916C74.1367 14.1804 74.1791 13.8619 74.1791 13.5362C74.1791 13.2177 74.1367 12.9065 74.059 12.588C73.9813 12.2695 73.8542 11.9944 73.6847 11.7483C73.5152 11.5022 73.3033 11.3068 73.042 11.1548C72.7807 11.0028 72.4699 10.9232 72.1168 10.9232C71.7637 10.9232 71.453 11.0028 71.1916 11.1548C70.9303 11.3068 70.7185 11.5095 70.549 11.7483C70.3795 11.9944 70.2594 12.2695 70.1746 12.588C70.097 12.9065 70.0546 13.2177 70.0546 13.5362C70.0546 13.8619 70.097 14.1804 70.1746 14.4916C70.2523 14.8029 70.3795 15.0852 70.549 15.3313C70.7185 15.5774 70.9303 15.7801 71.1916 15.9321C71.453 16.0913 71.7637 16.1637 72.1168 16.1637ZM76.2413 9.83018H77.449V7.60078H79.0451V9.83018H80.4859V11.0535H79.0451V15.02C79.0451 15.1938 79.0522 15.3385 79.0663 15.4688C79.0804 15.5919 79.1158 15.7004 79.1652 15.7873C79.2146 15.8742 79.2923 15.9393 79.3982 15.9827C79.5042 16.0262 79.6384 16.0479 79.822 16.0479C79.935 16.0479 80.048 16.0479 80.161 16.0406C80.274 16.0334 80.387 16.0189 80.5 15.99V17.2567C80.3234 17.2784 80.1469 17.2929 79.9844 17.3146C79.8149 17.3363 79.6454 17.3435 79.4689 17.3435C79.0451 17.3435 78.7061 17.3001 78.4519 17.2205C78.1976 17.1409 77.9928 17.0178 77.8516 16.8586C77.7033 16.6993 77.6114 16.5039 77.5549 16.265C77.5055 16.0262 77.4702 15.7511 77.4631 15.4471V11.0679H76.2554V9.83018L76.2413 9.83018Z" fill="#191919"/>
<path d="M19.5 6.87907H12.2446L10.0035 0L7.75544 6.87907L0.5 6.87209L6.37578 11.1279L4.12772 18L10.0035 13.7512L15.8723 18L13.6312 11.1279L19.5 6.87907Z" fill="#00B67A"/>
<path d="M14.5 12.7793L14.0119 11L10.5 14L14.5 12.7793Z" fill="#005128"/>
</svg>
