<svg width="14" height="14" viewBox="0 0 14 14" xmlns="http://www.w3.org/2000/svg">
<path d="M13.7457 12.6097L9.90217 8.75866C10.2036 8.36223 10.4344 7.92805 10.5946 7.45611C10.7547 6.98417 10.8348 6.48392 10.8348 5.95535C10.7971 4.57729 10.2931 3.40688 9.32283 2.44413C8.35254 1.48138 7.19855 1 5.86087 1C4.54203 1 3.40217 1.48138 2.4413 2.44413C1.48043 3.40688 1 4.55841 1 5.89872C1 7.22014 1.48043 8.36223 2.4413 9.32498C3.40217 10.2877 4.54203 10.7691 5.86087 10.7691C6.38841 10.7691 6.89239 10.6936 7.37283 10.5426C7.85326 10.3916 8.28188 10.165 8.6587 9.86299L12.5022 13.714C12.6717 13.8839 12.8837 13.9783 13.138 13.9972C13.3924 14.016 13.5949 13.9405 13.7457 13.7706C13.9152 13.6385 14 13.4544 14 13.2185C14 12.9825 13.9152 12.7796 13.7457 12.6097ZM2.61087 5.89872C2.61087 4.97372 2.92645 4.19502 3.55761 3.56262C4.18877 2.93023 4.95652 2.61403 5.86087 2.61403C6.78406 2.61403 7.56123 2.93023 8.19239 3.56262C8.82355 4.19502 9.13913 4.97372 9.13913 5.89872C9.13913 6.80484 8.82355 7.57409 8.19239 8.20649C7.56123 8.83889 6.78406 9.15509 5.86087 9.15509C4.95652 9.15509 4.18877 8.83889 3.55761 8.20649C2.92645 7.57409 2.61087 6.80484 2.61087 5.89872Z" />
</svg>
