<svg width="20" height="21" viewBox="0 0 20 21" fill="none" xmlns="http://www.w3.org/2000/svg">
<g clip-path="url(#clip0_7659_2582)">
<path d="M9.24255 3.80706C9.5404 3.16133 10.4581 3.16133 10.756 3.80706L12.3901 7.34992C12.5115 7.61309 12.7609 7.79429 13.0487 7.82842L16.9232 8.2878C17.6293 8.37152 17.9129 9.24434 17.3909 9.72715L14.5264 12.3761C14.3136 12.5729 14.2183 12.8661 14.2748 13.1504L15.0352 16.9771C15.1738 17.6746 14.4313 18.214 13.8108 17.8667L10.4063 15.961C10.1534 15.8195 9.84513 15.8195 9.59223 15.961L6.18772 17.8667C5.56721 18.214 4.82475 17.6746 4.96334 16.9771L5.72371 13.1504C5.78019 12.8661 5.68493 12.5729 5.47215 12.3761L2.60767 9.72715C2.08559 9.24434 2.36919 8.37152 3.07535 8.2878L6.94979 7.82842C7.2376 7.79429 7.487 7.61309 7.60839 7.34992L9.24255 3.80706Z" fill="white" stroke="white" stroke-width="1.66667" stroke-linejoin="round"/>
</g>
<defs>
<clipPath id="clip0_7659_2582">
<rect width="20" height="20" fill="white" transform="translate(0 0.5)"/>
</clipPath>
</defs>
</svg>
